<svg xmlns="http://www.w3.org/2000/svg" fill="none" viewBox="0 0 34 34"><path fill="#5A5A5A" fill-rule="evenodd" d="M16.952.893C7.7.893.208 8.386.208 17.637c0 7.409 4.793 13.667 11.448 15.886.837.146 1.151-.356 1.151-.796 0-.397-.02-1.716-.02-3.118-4.207.774-5.296-1.026-5.63-1.968-.189-.481-1.005-1.967-1.717-2.365-.586-.314-1.423-1.088-.02-1.109 1.318-.021 2.26 1.214 2.574 1.716 1.507 2.533 3.914 1.821 4.876 1.382.147-1.089.586-1.821 1.068-2.24-3.726-.418-7.619-1.863-7.619-8.267 0-1.821.649-3.328 1.716-4.5-.167-.419-.753-2.135.168-4.437 0 0 1.402-.44 4.604 1.716a15.536 15.536 0 0 1 4.186-.565c1.424 0 2.847.188 4.186.565 3.203-2.177 4.605-1.716 4.605-1.716.92 2.302.335 4.018.168 4.437 1.067 1.172 1.716 2.658 1.716 4.5 0 6.425-3.914 7.849-7.64 8.267.607.523 1.13 1.528 1.13 3.098 0 2.24-.02 4.04-.02 4.604 0 .44.313.963 1.15.796a16.772 16.772 0 0 0 11.408-15.886c0-9.251-7.493-16.744-16.744-16.744Z" clip-rule="evenodd"/></svg>