<svg xmlns="http://www.w3.org/2000/svg" id="Layer_1" data-name="Layer 1" viewBox="0 0 224.13 72.16"><defs><style>.cls-1{fill:none}</style></defs><path d="M150.08 42.05H150c-.31 1.37-.69 2.83-1.15 4.27l-2.31 6.81h7.1l-2.34-6.78c-.52-1.54-.87-2.93-1.22-4.3ZM128.87 19.9a.75.75 0 0 0-.85.85.76.76 0 0 0 .85.86h6.83a10.81 10.81 0 0 1 3 .39l1.21-2.1ZM121.38 51.95l3.64-6.3-3.64 6.3zM136.41 28.84l-.75 1.3.75-1.29v-.01z" class="cls-1"/><circle cx="87.03" cy="25.02" r="5.12" class="cls-1"/><path d="M24.54 13.07h-6.83v13.66c0 2.27-1.13 3.41-3.41 3.41s-3.41-1.14-3.41-3.41v-3.42l-6.83 3.42Q4.06 37 14.3 37t10.24-10.27Z"/><path d="M22.05 36.97h7.86l8.09-14 4.15 7.17h-6.89l-3.95 6.83h22.65L38 9.34 22.05 36.97z"/><path d="M62.75 19.9h11.41l4-6.83H62.75q-12 0-12 12t12 11.93h1.55l3.94-6.82h-5.49c-3.42 0-5.12-1.71-5.12-5.12s1.7-5.16 5.12-5.16Z"/><path d="M87 13.07q-11.94 0-11.94 12T87 37q12 0 12-12T87 13.07Zm0 17.07q-5.11 0-5.12-5.12T87 19.9q5.11 0 5.12 5.12T87 30.14Z"/><path d="M129.7 53h4.75v7a9.89 9.89 0 0 1-4 .63c-4.47 0-7.61-2.34-8.66-6.39l7.17-12.43a12.53 12.53 0 0 1 1.87-.15 11.77 11.77 0 0 1 5.21 1l.77-2.48a15 15 0 0 0-5.91-1.08h-.4l1.22-2.1 3.93-6.82.74-1.3 3.67-6.37 10.58-18.32-1.26-.72-5.55 9.6h-15q-7.68 0-7.68 7.68t7.68 7.68H135l-1 1.71h-14.4c0-.29.06-.55.06-.85a9.5 9.5 0 0 0-.85-4.27 9.5 9.5 0 0 0 .85-4.27q0-7.68-7.68-7.68H95.75l3.94 6.83H112a.86.86 0 1 1 0 1.71h-11.32l3.94 6.82H112a.86.86 0 1 1 0 1.71h-6.4l4 6.82h2.4c4.76 0 7.28-2.24 7.61-6.67l3.82 6.71H130l-.87 1.51-4.13 7.14-3.62 6.35-2.38 4.16-6 10.46 1.26.73 5.54-9.61a9.61 9.61 0 0 0 1.59 2.26c2.3 2.2 5.24 3.11 8.8 3.11a21.46 21.46 0 0 0 7.27-1.29V50.54h-7.76Zm6-31.38h-6.83a.76.76 0 0 1-.85-.86.75.75 0 0 1 .85-.85h11L138.68 22a10.81 10.81 0 0 0-2.98-.39ZM148.3 39.37l-8 23.54h3.14l2.45-7.41h8.35l2.51 7.41H160l-8-23.54Zm-1.79 13.76 2.31-6.81c.46-1.44.84-2.9 1.15-4.27h.11c.35 1.37.7 2.76 1.19 4.3l2.34 6.78ZM181.39 39.37l-4.19 11.38c-1 3-1.89 5.59-2.52 8h-.07c-.63-2.45-1.4-5.07-2.37-8l-4-11.38h-3.88l-1.66 23.54h2.9l.63-10.1c.21-3.52.38-7.47.45-10.41h.07c.67 2.8 1.57 5.84 2.69 9.16l3.84 11.21h2.31l4.16-11.42c1.18-3.22 2.13-6.22 3-9h.07c0 2.9.2 6.92.38 10.17l.56 10.34h3l-1.46-23.54ZM194.47 51.87h9.11v-2.52h-9.11v-7.44h9.67v-2.54h-12.75v23.54h13.28v-2.55h-10.2v-8.49zM215.68 49.56c-3.25-1.25-4.68-2.34-4.68-4.5 0-1.61 1.22-3.53 4.43-3.53a8.66 8.66 0 0 1 4.44 1.12l.84-2.52a11 11 0 0 0-5.17-1.13c-4.58 0-7.62 2.72-7.62 6.39 0 3.28 2.38 5.31 6.22 6.63 3.18 1.19 4.44 2.48 4.44 4.68 0 2.38-1.82 4-4.93 4a10.61 10.61 0 0 1-5.41-1.51l-.8 2.52a12.08 12.08 0 0 0 6 1.54c5.56 0 8.21-3.18 8.21-6.78s-1.99-5.33-5.97-6.91Z"/></svg>