<svg xmlns="http://www.w3.org/2000/svg" fill="none" viewBox="0 0 32 27"><path fill="#5A5A5A" d="M31.896 3.782a13.016 13.016 0 0 1-3.732 1.022 6.516 6.516 0 0 0 2.857-3.597 12.977 12.977 0 0 1-4.127 1.577 6.502 6.502 0 0 0-11.076 5.93A18.459 18.459 0 0 1 2.42 1.922a6.497 6.497 0 0 0-.879 3.268 6.502 6.502 0 0 0 2.891 5.41 6.484 6.484 0 0 1-2.944-.813v.084a6.502 6.502 0 0 0 5.214 6.374 6.547 6.547 0 0 1-2.935.111 6.503 6.503 0 0 0 6.072 4.513 13.044 13.044 0 0 1-8.073 2.784c-.519 0-1.037-.03-1.552-.091a18.383 18.383 0 0 0 9.963 2.92c11.958 0 18.495-9.904 18.495-18.493 0-.28-.007-.561-.02-.84a13.214 13.214 0 0 0 3.241-3.363l.003-.004Z"/></svg>