<svg xmlns="http://www.w3.org/2000/svg" fill="none" viewBox="0 -3 35 27"><path fill="#5A5A5A" d="M33.396 3.972a3.888 3.888 0 0 0-1.07-1.772 4.256 4.256 0 0 0-1.866-1.035C27.84.475 17.34.475 17.34.475 12.964.424 8.59.642 4.24 1.13a4.41 4.41 0 0 0-1.867 1.06 4.041 4.041 0 0 0-1.086 1.78 40.59 40.59 0 0 0-.68 7.667c-.017 2.569.21 5.135.68 7.666a3.944 3.944 0 0 0 1.082 1.77 4.32 4.32 0 0 0 1.87 1.037c2.656.69 13.103.69 13.103.69 4.382.05 8.764-.17 13.119-.656.7-.181 1.343-.537 1.867-1.036a3.879 3.879 0 0 0 1.067-1.772c.482-2.527.716-5.095.7-7.667a37.084 37.084 0 0 0-.698-7.698v.001ZM14.003 16.414V6.861l8.735 4.777-8.735 4.776Z"/></svg>